<svg width="64" height="65" viewBox="0 0 64 65" fill="none" xmlns="http://www.w3.org/2000/svg">
<path fill-rule="evenodd" clip-rule="evenodd" d="M25.891 20.5007C24.3086 24.4098 20.4762 27.1673 15.9997 27.1673C10.1086 27.1673 5.33301 22.3917 5.33301 16.5007C5.33301 10.6096 10.1086 5.83398 15.9997 5.83398C20.4762 5.83398 24.3086 8.59154 25.891 12.5007H38.6436C47.9389 12.5007 51.5211 24.6059 43.7228 29.6643L24.6301 42.0487C24.2787 42.2766 24.1403 42.5128 24.0746 42.71C23.998 42.9397 23.9854 43.2356 24.0772 43.5457C24.1689 43.8558 24.3405 44.0971 24.5297 44.2482C24.6922 44.3778 24.9369 44.5006 25.3557 44.5006H38.1084C39.6907 40.5915 43.5232 37.834 47.9997 37.834C53.8907 37.834 58.6663 42.6096 58.6663 48.5006C58.6663 54.3917 53.8907 59.1673 47.9997 59.1673C43.5232 59.1673 39.6907 56.4098 38.1084 52.5006H25.3557C16.0604 52.5006 12.4782 40.3954 20.2766 35.337L39.3692 22.9526C39.7206 22.7247 39.859 22.4885 39.9248 22.2913C40.0014 22.0616 40.0139 21.7657 39.9222 21.4556C39.8304 21.1455 39.6589 20.9042 39.4696 20.7531C39.3071 20.6235 39.0625 20.5007 38.6436 20.5007H25.891Z" fill="#F2F2F2"/>
</svg>
