<svg width="64" height="65" viewBox="0 0 64 65" fill="none" xmlns="http://www.w3.org/2000/svg">
<path fill-rule="evenodd" clip-rule="evenodd" d="M11.0807 50.2737L6 41.3884L6.0106 41.4011L11.4038 36.0079V29.9481L6.06267 23.5418L11.0028 14.5025L19.5548 15.9087L23.7475 13.3879L25.9064 5.83594H36.9924L39.4924 13.3153L45.3465 16.2475L52.9325 14.7944L57.9664 23.6017L52.5732 28.9949V35.0157L57.2191 40.0287L53.0394 49.1747L44.5394 47.7737L40.2451 51.4794L38.0524 59.1594H26.9664L24.4456 51.6201L18.6201 48.1201L11.0807 50.2737ZM41.3337 32.5013C41.3337 27.3516 37.1501 23.168 32.0003 23.168C26.8506 23.168 22.667 27.3516 22.667 32.5013C22.667 37.651 26.8506 41.8346 32.0003 41.8346C37.1501 41.8346 41.3337 37.651 41.3337 32.5013Z" fill="#F2F2F2"/>
</svg>
